<svg id="visual" viewBox="0 0 900 600" width="900" height="600" xmlns="http://www.w3.org/2000/svg" xmlns:xlink="http://www.w3.org/1999/xlink" version="1.1"><rect x="0" y="0" width="900" height="600" fill="#A299FF"></rect><path d="M0 357L30 352.3C60 347.7 120 338.3 180 337.8C240 337.3 300 345.7 360 362.3C420 379 480 404 540 419.8C600 435.7 660 442.3 720 441.7C780 441 840 433 870 429L900 425L900 601L870 601C840 601 780 601 720 601C660 601 600 601 540 601C480 601 420 601 360 601C300 601 240 601 180 601C120 601 60 601 30 601L0 601Z" fill="#DCDCDC" stroke-linecap="round" stroke-linejoin="miter"></path></svg>