<svg id="visual" viewBox="0 0 900 600" width="900" height="600" xmlns="http://www.w3.org/2000/svg" xmlns:xlink="http://www.w3.org/1999/xlink" version="1.1"><rect x="0" y="0" width="900" height="600" fill="#A299FF"></rect><path d="M0 295L15 308.3C30 321.7 60 348.3 90 348.5C120 348.7 150 322.3 180 313.7C210 305 240 314 270 311.5C300 309 330 295 360 301C390 307 420 333 450 349.5C480 366 510 373 540 366.7C570 360.3 600 340.7 630 333.5C660 326.3 690 331.7 720 314.3C750 297 780 257 810 247.2C840 237.3 870 257.7 885 267.8L900 278L900 601L885 601C870 601 840 601 810 601C780 601 750 601 720 601C690 601 660 601 630 601C600 601 570 601 540 601C510 601 480 601 450 601C420 601 390 601 360 601C330 601 300 601 270 601C240 601 210 601 180 601C150 601 120 601 90 601C60 601 30 601 15 601L0 601Z" fill="#DCDCDC" stroke-linecap="round" stroke-linejoin="miter"></path></svg>